<svg xmlns="http://www.w3.org/2000/svg" width="100" height="100" viewBox="0 0 100 100">
  <defs>
    <linearGradient id="cyberGradient" x1="0%" y1="0%" x2="100%" y2="100%">
      <stop offset="0%" style="stop-color:#00aaff;stop-opacity:1" />
      <stop offset="50%" style="stop-color:#ff6600;stop-opacity:1" />
      <stop offset="100%" style="stop-color:#00cc66;stop-opacity:1" />
    </linearGradient>
    <filter id="glow">
      <feGaussianBlur stdDeviation="3" result="coloredBlur"/>
      <feMerge> 
        <feMergeNode in="coloredBlur"/>
        <feMergeNode in="SourceGraphic"/>
      </feMerge>
    </filter>
  </defs>
  
  <!-- Circuit-like elements -->
  <path d="M20,30 L40,30 L45,25 L55,35 L60,30 L80,30" stroke="url(#cyberGradient)" stroke-width="2" fill="none" filter="url(#glow)"/>
  <path d="M20,50 L40,50 L45,45 L55,55 L60,50 L80,50" stroke="url(#cyberGradient)" stroke-width="2" fill="none" filter="url(#glow)"/>
  <path d="M20,70 L40,70 L45,65 L55,75 L60,70 L80,70" stroke="url(#cyberGradient)" stroke-width="2" fill="none" filter="url(#glow)"/>
  
  <!-- Central node -->
  <circle cx="50" cy="50" r="15" fill="none" stroke="url(#cyberGradient)" stroke-width="3" filter="url(#glow)"/>
  
  <!-- Connection points -->
  <circle cx="20" cy="30" r="3" fill="#00aaff" filter="url(#glow)"/>
  <circle cx="80" cy="30" r="3" fill="#00aaff" filter="url(#glow)"/>
  <circle cx="20" cy="50" r="3" fill="#ff6600" filter="url(#glow)"/>
  <circle cx="80" cy="50" r="3" fill="#ff6600" filter="url(#glow)"/>
  <circle cx="20" cy="70" r="3" fill="#00cc66" filter="url(#glow)"/>
  <circle cx="80" cy="70" r="3" fill="#00cc66" filter="url(#glow)"/>
</svg>